<svg width="2257" height="357" viewBox="0 0 2257 357" fill="none" xmlns="http://www.w3.org/2000/svg">
<g clip-path="url(#clip0_10266_13658)">
<path d="M1851.2 352.199L1979.9 184.699L1851.2 17.1992H2003.7L2128.3 184.699L2003.7 352.199H1851.2Z" fill="white"/>
<path d="M1650.1 207.7V352.2H1580.8V102.3H1646.8V146.4H1649.7C1655.2 131.9 1664.5 120.4 1677.5 111.9C1690.5 103.3 1706.3 99 1724.8 99C1742.2 99 1757.3 102.8 1770.2 110.4C1783.1 118 1793.1 128.8 1800.3 142.9C1807.5 156.9 1811 173.6 1811 193V352.1H1741.7V205.5C1741.8 190.2 1737.9 178.3 1730 169.7C1722.1 161 1711.2 156.7 1697.3 156.7C1688 156.7 1679.7 158.7 1672.6 162.7C1665.5 166.7 1660 172.6 1656 180.3C1652.2 187.8 1650.2 197 1650.1 207.7Z" fill="white"/>
<path d="M1469.8 352.2V102.3H1539.1V352.2H1469.8ZM1504.6 70.1C1494.3 70.1 1485.5 66.7 1478.1 59.9C1470.8 53 1467.2 44.7 1467.2 35C1467.2 25.5 1470.8 17.3 1478.1 10.4C1485.5 3.49999 1494.3 0 1504.6 0C1514.9 0 1523.7 3.49999 1531 10.4C1538.4 17.2 1542.1 25.4 1542.1 35C1542.1 44.7 1538.4 52.9 1531 59.9C1523.7 66.7 1514.9 70.1 1504.6 70.1Z" fill="white"/>
<path d="M1289 356.9C1273.1 356.9 1258.8 354.1 1246.4 348.6C1233.9 343 1224.1 334.7 1216.8 323.7C1209.6 312.6 1206.1 298.9 1206.1 282.4C1206.1 268.5 1208.6 256.9 1213.7 247.4C1218.8 238 1225.7 230.4 1234.5 224.6C1243.3 218.9 1253.3 214.5 1264.4 211.6C1275.7 208.7 1287.5 206.6 1299.9 205.4C1314.4 203.9 1326.1 202.5 1335 201.2C1343.9 199.8 1350.3 197.7 1354.4 195C1358.4 192.3 1360.4 188.3 1360.4 183V182C1360.4 171.7 1357.1 163.7 1350.6 158.1C1344.2 152.5 1335.1 149.6 1323.3 149.6C1310.8 149.6 1300.9 152.4 1293.5 157.9C1286.1 163.3 1281.2 170.2 1278.9 178.4L1214.8 173.2C1218 158 1224.5 144.9 1234 133.8C1243.5 122.6 1255.9 114.1 1270.9 108.1C1286.1 102 1303.7 99 1323.6 99C1337.5 99 1350.8 100.6 1363.5 103.9C1376.3 107.2 1387.6 112.2 1397.5 119C1407.5 125.8 1415.3 134.6 1421.1 145.4C1426.9 156 1429.7 168.8 1429.7 183.6V352.1H1364V317.4H1362C1358 325.2 1352.6 332.1 1345.9 338.1C1339.2 344 1331.1 348.6 1321.7 351.9C1312.3 355.3 1301.4 356.9 1289 356.9ZM1308.9 309.1C1319.1 309.1 1328.1 307.1 1335.9 303.1C1343.7 299 1349.8 293.4 1354.3 286.5C1358.7 279.6 1361 271.7 1361 262.9V236.4C1358.8 237.8 1355.8 239.1 1352 240.3C1348.3 241.4 1344.1 242.4 1339.5 243.4C1334.8 244.3 1330.2 245.1 1325.5 245.8C1320.8 246.5 1316.6 247 1312.8 247.6C1304.7 248.8 1297.6 250.7 1291.5 253.3C1285.4 255.9 1280.7 259.4 1277.4 263.9C1274 268.2 1272.3 273.7 1272.3 280.2C1272.3 289.6 1275.7 296.8 1282.5 301.8C1289.4 306.7 1298.2 309.1 1308.9 309.1Z" fill="white"/>
<path d="M1180 297.5C1178.3 297.8 1175.8 298.3 1172.5 299C1169.3 299.5 1166 299.8 1162.7 299.8C1158 299.8 1153.9 299.1 1150.3 297.7C1146.8 296.3 1144.1 293.9 1142.2 290.4C1140.2 286.8 1139.3 281.8 1139.3 275.4V154.4H1186.3V102.3H1139.3V42.4004H1070V102.3H1035.8V154.4H1070V284.5C1069.9 300.9 1073.3 314.4 1080.2 325.2C1087.1 335.9 1096.8 343.9 1109.3 349C1121.9 354.1 1136.5 356.3 1153.2 355.7C1162.2 355.4 1169.9 354.5 1176.1 352.9C1182.4 351.5 1187.3 350.2 1190.7 349.2L1180 297.5Z" fill="white"/>
<path d="M851.5 207.7V352.2H782.2V102.3H848.3V146.4H851.2C856.7 131.9 866 120.4 879 111.9C892 103.3 907.8 99 926.3 99C943.6 99 958.8 102.8 971.7 110.4C984.6 118 994.6 128.8 1001.8 142.9C1009 156.9 1012.5 173.6 1012.5 193V352.1H943.2V205.5C943.3 190.2 939.4 178.3 931.5 169.7C923.6 161 912.7 156.7 898.8 156.7C889.5 156.7 881.2 158.7 874.1 162.7C867 166.7 861.5 172.6 857.5 180.3C853.6 187.8 851.6 197 851.5 207.7Z" fill="white"/>
<path d="M671.1 352.2V102.3H740.4V352.2H671.1ZM705.9 70.1C695.6 70.1 686.8 66.7 679.4 59.9C672.1 53 668.5 44.7 668.5 35C668.5 25.5 672.1 17.3 679.4 10.4C686.8 3.49999 695.6 0 705.9 0C716.2 0 725 3.49999 732.3 10.4C739.7 17.2 743.4 25.4 743.4 35C743.4 44.7 739.7 52.9 732.3 59.9C725 66.7 716.3 70.1 705.9 70.1Z" fill="white"/>
<path d="M490.4 356.9C474.5 356.9 460.2 354.1 447.8 348.6C435.3 343 425.5 334.7 418.2 323.7C411 312.6 407.5 298.9 407.5 282.4C407.5 268.5 410 256.9 415.1 247.4C420.2 238 427.1 230.4 435.9 224.6C444.7 218.9 454.7 214.5 465.8 211.6C477.1 208.7 488.9 206.6 501.3 205.4C515.8 203.9 527.5 202.5 536.4 201.2C545.3 199.8 551.7 197.7 555.8 195C559.8 192.3 561.8 188.3 561.8 183V182C561.8 171.7 558.5 163.7 552 158.1C545.6 152.5 536.5 149.6 524.7 149.6C512.2 149.6 502.3 152.4 494.9 157.9C487.5 163.3 482.6 170.2 480.3 178.4L416.2 173.2C419.5 158 425.9 144.9 435.4 133.8C444.9 122.6 457.3 114.1 472.3 108.1C487.5 102 505.1 99 525 99C538.9 99 552.2 100.6 564.9 103.9C577.7 107.2 589 112.2 598.9 119C608.9 125.8 616.7 134.6 622.5 145.4C628.3 156 631.1 168.8 631.1 183.6V352.1H565.4V317.4H563.4C559.4 325.2 554 332.1 547.3 338.1C540.6 344 532.5 348.6 523.1 351.9C513.7 355.3 502.8 356.9 490.4 356.9ZM510.2 309.1C520.4 309.1 529.4 307.1 537.2 303.1C545 299 551.1 293.4 555.6 286.5C560 279.6 562.3 271.7 562.3 262.9V236.4C560.1 237.8 557.1 239.1 553.4 240.3C549.7 241.4 545.5 242.4 540.9 243.4C536.2 244.3 531.6 245.1 526.9 245.8C522.2 246.5 518 247 514.2 247.6C506.1 248.8 499 250.7 492.9 253.3C486.8 255.9 482.1 259.4 478.7 263.9C475.3 268.2 473.7 273.7 473.7 280.2C473.7 289.6 477.1 296.8 483.9 301.8C490.8 306.7 499.6 309.1 510.2 309.1Z" fill="white"/>
<path d="M0 17H100.5L185.8 224.9H189.7L275 17H375.5V352.9H296.5V146.6H293.7L213 350.7H162.5L81.8 145.4H79V352.9H0V17Z" fill="white"/>
<path d="M2066.6 301.301L2104.4 352.201H2257L2141.1 201.301L2066.6 301.301Z" fill="white"/>
<path d="M2141.1 167.999L2257 17.1992H2104.5L2066.7 68.0992L2141.1 167.999Z" fill="white"/>
</g>
<defs>
<clipPath id="clip0_10266_13658">
<rect width="2257" height="357" fill="white"/>
</clipPath>
</defs>
</svg>
